<svg width="19" height="32" viewBox="0 0 19 32" fill="none" xmlns="http://www.w3.org/2000/svg">
<path fill-rule="evenodd" clip-rule="evenodd" d="M17.7299 14.2712C18.1805 14.7219 18.4336 15.3331 18.4336 15.9705C18.4336 16.6078 18.1805 17.219 17.7299 17.6697L4.13337 31.2662C3.91166 31.4958 3.64645 31.6789 3.35321 31.8049C3.05998 31.9308 2.74459 31.9971 2.42546 31.9999C2.10633 32.0027 1.78984 31.9419 1.49446 31.821C1.19908 31.7002 0.930723 31.5217 0.705053 31.296C0.479383 31.0704 0.300917 30.802 0.180067 30.5066C0.0592194 30.2113 -0.00159264 29.8948 0.00118065 29.5756C0.00395393 29.2565 0.0702572 28.9411 0.19622 28.6479C0.322186 28.3546 0.505287 28.0894 0.734844 27.8677L12.6321 15.9705L0.734844 4.07321C0.297029 3.61991 0.0547733 3.01279 0.0602493 2.3826C0.0657253 1.75241 0.318497 1.14959 0.764122 0.703964C1.20975 0.258339 1.81257 0.00556564 2.44276 8.96454e-05C3.07294 -0.00538635 3.68007 0.23687 4.13337 0.674685L17.7299 14.2712Z" fill="black"/>
</svg>
