<svg width="19" height="32" viewBox="0 0 19 32" fill="none" xmlns="http://www.w3.org/2000/svg">
<path fill-rule="evenodd" clip-rule="evenodd" d="M0.703708 17.7288C0.253124 17.2781 0 16.6669 0 16.0295C0 15.3922 0.253124 14.781 0.703708 14.3303L14.3002 0.733756C14.5219 0.504199 14.7871 0.321096 15.0804 0.195131C15.3736 0.0691672 15.689 0.00286393 16.0081 9.07469e-05C16.3273 -0.00268243 16.6438 0.0581305 16.9391 0.17898C17.2345 0.299829 17.5029 0.478295 17.7285 0.703965C17.9542 0.929635 18.1327 1.19799 18.2535 1.49337C18.3744 1.78875 18.4352 2.10524 18.4324 2.42437C18.4296 2.7435 18.3633 3.05889 18.2374 3.35212C18.1114 3.64536 17.9283 3.91057 17.6987 4.13228L5.8015 16.0295L17.6987 27.9268C18.1366 28.3801 18.3788 28.9872 18.3733 29.6174C18.3679 30.2476 18.1151 30.8504 17.6695 31.296C17.2238 31.7417 16.621 31.9944 15.9908 31.9999C15.3607 32.0054 14.7535 31.7631 14.3002 31.3253L0.703708 17.7288Z" fill="black"/>
</svg>
