<?xml version="1.0" encoding="utf-8"?>
<!-- Generator: Adobe Illustrator 28.0.0, SVG Export Plug-In . SVG Version: 6.00 Build 0)  -->
<svg version="1.1" id="Layer_1" xmlns="http://www.w3.org/2000/svg" xmlns:xlink="http://www.w3.org/1999/xlink" x="0px" y="0px"
	 viewBox="0 0 283.5 283.5" style="enable-background:new 0 0 283.5 283.5;" xml:space="preserve">
<style type="text/css">
	.st0{fill:#F7A49D;}
	.st1{fill:#0D4525;}
</style>
<path class="st0" d="M283.5,38.9v13.4c-15.8,6.1-30.4,9.3-47.4,13.4c-2.5,1.1-5,2.2-7.6,3.2c-3.6,2.1-7.2,4.2-10.7,6.4
	c27.5-3.6,48.9-9.8,65.7-16.9v5.6c-30.4,13.1-57,17-77.1,18.4c-3.4,2.2-6.8,4.5-10.2,6.8c0,0,0.1,0,0.1,0
	c20.7,1.8,57.3-5.1,87.1-20.5v7.7C245.7,93.8,209.6,98,184.8,97c-2.9,2-5.7,4.1-8.6,6.2c0,0.2,0.1,0.3,0.4,0.3
	c21.3,3.9,73.7-3.4,106.8-24v203.9H0.7c56.4-85.3,136-166.6,225.8-218.7C243.6,57.7,263.9,48.3,283.5,38.9L283.5,38.9z M29.4,250.4
	c50.9,35.6,110.4,16.1,152.3-8.4c-60.7,20.1-111.3,23.4-144.8-1.4C34.4,243.9,31.9,247.1,29.4,250.4L29.4,250.4z M153.6,120.7l0.3,0
	c29,3.9,94.8-4.2,128.4-31.4c-46.1,22-94.4,26.9-117.9,22.7C160.7,115,157.1,117.8,153.6,120.7L153.6,120.7z M131.3,139.6
	c33,2.3,97.8-1.2,142.4-34.6c-48.5,26.2-106.7,25.8-132.9,26.2C137.7,134,134.5,136.7,131.3,139.6L131.3,139.6z M110,159.2
	c39.4,5.3,102.6,1.4,150.6-33.9c-51.8,27.3-107,29-141.5,25.4l0,0C116,153.5,113,156.3,110,159.2L110,159.2z M91.9,177.3
	c43.4,8.2,85.5,6.8,147.7-32.6c-64.9,34.9-103,32-138.7,23.5C97.8,171.1,94.8,174.2,91.9,177.3z M74.3,196
	c42,15.1,111.4,0.6,154.2-30.9c-56.3,27.7-110,33.5-145.7,21.7C79.9,189.8,77.1,192.9,74.3,196z M59.5,212.8
	c38.2,23.3,105.9,9.4,159.5-24.3c-71.9,28.2-118.8,32.9-151.4,15l-0.1,0C64.8,206.6,62.1,209.7,59.5,212.8L59.5,212.8z M44.8,230.6
	c36.5,30.4,100.6,16.2,156.3-14.4c-57,19.4-116,28.4-149.3,5.7C49.4,224.8,47.1,227.7,44.8,230.6z"/>
<path class="st1" d="M283.5,9.8V0h-13c-34.3,23.7-53.4,42.7-69.9,72.5c-3.9,2.4-7.7,4.8-11.5,7.3l0.1-0.3
	c10.5-24.8,37.2-57.8,77.7-79.5h-22.7c-34.4,33.9-54.1,64.5-66.5,87.3c-3.6,2.5-7.2,4.9-10.8,7.5c0.1-0.2,0.1-0.3,0.2-0.5
	C177.5,62.9,203,31.1,242,0h-18.4c-40.2,40.9-59,71.6-67.7,102.6c-4.5,3.3-8.9,6.6-13.3,10l0.2-0.5c11.7-37.8,35-75.4,79.6-112.2
	h-18.6c-42.4,51.5-62.8,82.8-71.8,121.1c-0.5,0.4-0.9,0.7-1.3,1.1c-4,3.2-8,6.5-11.9,9.8c0.1-0.4,0.2-0.9,0.3-1.2
	C131.3,84.5,153.1,45.2,202,0h-19.8c-48.8,58.6-60.3,90.1-75.9,142.7c-4,3.6-8.1,7.2-12,10.8l0.1-0.6c12.2-53.6,37.5-106,86.7-152.9
	H0v264.6c61.6-83.1,143.5-156.2,226.1-201.9v0c17.1-10.2,37.2-22.1,57.4-31.9v-16c-27.7,16-48.6,34.5-61,44.9
	c-4.4,2.5-8.8,5-13.2,7.6C225.5,44.2,255,22.4,283.5,9.8z M13.9,239.4c-0.1-0.5-0.2-1-0.3-1.3c-12-53.9,5.3-110.6,51.7-170.3
	c-40.3,63.7-53,115.2-41.5,159.5C20.5,231.2,17.1,235.3,13.9,239.4z M31.4,218.3L31.4,218.3C31.4,218.3,31.4,218.3,31.4,218.3
	c0-0.4-0.1-0.7-0.1-0.9c-7.2-57.2,14.1-116.8,65.4-176.2c-44.6,65.4-61,118.3-54.2,164.5C38.8,209.9,35.1,214.1,31.4,218.3
	C31.4,218.3,31.4,218.3,31.4,218.3z M50.2,197.4L50.2,197.4l0-0.4c-1-55.6,26.7-120.5,75.3-173.1c-39.6,57.8-64,113.9-62,159.5
	C59,188,54.5,192.7,50.2,197.4z M71.1,175.7L71.1,175.7c0-0.5,0.1-0.9,0.1-1.2c0.3-44.3,41.3-132,88.9-173.6
	c-50,63.9-71,121.2-78.6,164.7C78,168.9,74.5,172.3,71.1,175.7z"/>
</svg>
