<svg width="24" height="21" viewBox="0 0 24 21" fill="none" xmlns="http://www.w3.org/2000/svg">
<path d="M2.09027 9.3916H22.9582C23.2349 9.3916 23.5003 9.50153 23.696 9.69721C23.8916 9.89288 24.0016 10.1583 24.0016 10.435C24.0016 10.7117 23.8916 10.9771 23.696 11.1728C23.5003 11.3685 23.2349 11.4784 22.9582 11.4784H2.09027C1.81354 11.4784 1.54815 11.3685 1.35248 11.1728C1.1568 10.9771 1.04688 10.7117 1.04688 10.435C1.04688 10.1583 1.1568 9.89288 1.35248 9.69721C1.54815 9.50153 1.81354 9.3916 2.09027 9.3916Z" fill="#020E07"/>
<path d="M2.52062 10.4353L11.1745 19.0871C11.3705 19.283 11.4805 19.5487 11.4805 19.8258C11.4805 20.1029 11.3705 20.3686 11.1745 20.5646C10.9786 20.7605 10.7129 20.8705 10.4358 20.8705C10.1587 20.8705 9.89301 20.7605 9.69709 20.5646L0.306536 11.174C0.209369 11.0771 0.132277 10.9619 0.0796764 10.8352C0.0270758 10.7084 0 10.5725 0 10.4353C0 10.298 0.0270758 10.1621 0.0796764 10.0354C0.132277 9.90861 0.209369 9.79347 0.306536 9.69654L9.69709 0.305989C9.89301 0.110067 10.1587 0 10.4358 0C10.7129 0 10.9786 0.110067 11.1745 0.305989C11.3705 0.501911 11.4805 0.767638 11.4805 1.04471C11.4805 1.32179 11.3705 1.58752 11.1745 1.78344L2.52062 10.4353Z" fill="#020E07"/>
</svg>
