<svg width="21" height="14" viewBox="0 0 21 14" fill="none" xmlns="http://www.w3.org/2000/svg">
<path d="M8.42188 10L13.6119 7L8.42188 4V10ZM19.9819 2.17C20.1119 2.64 20.2019 3.27 20.2619 4.07C20.3319 4.87 20.3619 5.56 20.3619 6.16L20.4219 7C20.4219 9.19 20.2619 10.8 19.9819 11.83C19.7319 12.73 19.1519 13.31 18.2519 13.56C17.7819 13.69 16.9219 13.78 15.6019 13.84C14.3019 13.91 13.1119 13.94 12.0119 13.94L10.4219 14C6.23187 14 3.62188 13.84 2.59188 13.56C1.69188 13.31 1.11188 12.73 0.861875 11.83C0.731875 11.36 0.641875 10.73 0.581875 9.93C0.511875 9.13 0.481875 8.44 0.481875 7.84L0.421875 7C0.421875 4.81 0.581875 3.2 0.861875 2.17C1.11188 1.27 1.69188 0.69 2.59188 0.44C3.06188 0.31 3.92188 0.22 5.24188 0.16C6.54187 0.0899998 7.73187 0.0599999 8.83187 0.0599999L10.4219 0C14.6119 0 17.2219 0.16 18.2519 0.44C19.1519 0.69 19.7319 1.27 19.9819 2.17Z" fill="#020E07"/>
</svg>
